# Blender v2.76 (sub 0) OBJ File: 'PalmTree.blend'
# www.blender.org
mtllib PalmTree.mtl
o tree_Cube.001
v 1.450495 -0.739110 1.965216
v 1.295663 3.585172 2.635803
v 1.506726 -0.770888 3.134534
v 1.289597 3.581443 2.782324
v 0.589737 -0.724469 2.005670
v 0.959199 3.590895 2.651617
v 0.645968 -0.756247 3.174988
v 0.953133 3.587166 2.798137
v 1.481454 -0.267123 2.035363
v 1.465592 0.361169 2.229269
v 1.451163 0.964318 2.312710
v 1.413170 1.646710 2.412427
v 1.375207 2.328029 2.500214
v 1.312024 2.941803 2.570236
v 1.310456 2.935615 2.813348
v 1.378418 2.319229 2.845956
v 1.431606 1.634455 2.814590
v 1.480028 0.947496 2.894333
v 1.505128 0.338515 3.040065
v 1.533034 -0.296359 3.104806
v 0.944506 2.941839 2.830547
v 0.909189 2.327211 2.868010
v 0.906084 1.643394 2.839289
v 0.761198 0.959723 2.928117
v 0.684505 0.352473 3.078633
v 0.633106 -0.281051 3.147101
v 0.946074 2.948027 2.587435
v 0.905978 2.336010 2.522266
v 0.887649 1.655649 2.437126
v 0.732333 0.976545 2.346493
v 0.644968 0.375127 2.267837
v 0.581526 -0.251815 2.077657
v 1.404110 1.332952 2.383156
v 1.411729 1.319564 2.829810
v 0.833783 1.329395 2.856972
v 0.826165 1.342782 2.410319
v 1.421609 1.966976 2.450888
v 1.428347 1.956249 2.872370
v 0.907587 1.965107 2.896844
v 0.900850 1.975834 2.475363
v 1.283188 3.607925 2.636363
v 1.290011 3.604196 2.782883
v 0.953546 3.609919 2.798697
v 0.946724 3.613648 2.652176
v -0.781480 2.964847 2.905507
v -0.792611 2.970931 2.666468
v -0.791869 3.000216 2.906891
v -0.803000 3.006299 2.667852
v -0.361480 3.116799 2.960068
v 0.125897 3.234294 2.905936
v 0.614797 3.401586 2.866227
v 0.847262 3.573335 2.771919
v 0.842612 3.595605 2.772703
v 0.604408 3.436954 2.867611
v 0.115508 3.269662 2.907320
v -0.371868 3.152168 2.961452
v -0.388813 3.161429 2.597552
v 0.101760 3.277176 2.612081
v 0.592629 3.443391 2.614655
v 0.838649 3.597771 2.687600
v 0.843299 3.575500 2.686817
v 0.603018 3.408023 2.613271
v 0.112148 3.241807 2.610697
v -0.378425 3.126061 2.596169
v 0.946070 2.765291 0.888057
v 1.089641 2.762849 0.881309
v 0.946484 2.788043 0.888616
v 1.090054 2.785602 0.881869
v 0.959138 2.982547 1.359427
v 0.899634 3.191126 1.803146
v 1.001706 3.386327 2.239001
v 1.002120 3.409081 2.239561
v 0.900047 3.213879 1.803706
v 0.959552 3.005300 1.359987
v 1.128621 3.002424 1.352041
v 1.236512 3.208155 1.787893
v 1.182439 3.406013 2.231086
v 1.182025 3.383260 2.230526
v 1.236098 3.185402 1.787333
v 1.128208 2.979671 1.351481
v 2.595052 3.028481 2.584841
v 2.582484 3.026277 2.683680
v 2.595465 3.051234 2.585400
v 2.582897 3.049030 2.684240
v 2.248514 3.182400 2.711086
v 1.929867 3.345430 2.746503
v 1.597175 3.485768 2.747860
v 1.596761 3.463015 2.747300
v 1.929454 3.322677 2.745943
v 2.248101 3.159647 2.710526
v 2.254382 3.162345 2.596229
v 1.922631 3.326406 2.599423
v 1.604061 3.465633 2.635507
v 1.604475 3.488386 2.636067
v 1.923044 3.349159 2.599983
v 2.254796 3.185098 2.596789
v 1.243386 2.829931 4.173053
v 1.073347 2.832682 4.186797
v 1.243799 2.852684 4.173613
v 1.073760 2.855435 4.187356
v 1.269664 3.016196 3.800907
v 1.307839 3.238707 3.453765
v 1.248849 3.423221 3.105489
v 1.249359 3.451279 3.106179
v 1.308252 3.261460 3.454325
v 1.270077 3.038949 3.801466
v 1.027188 3.043001 3.816116
v 0.971788 3.267183 3.470138
v 1.012205 3.455162 3.123469
v 1.011696 3.427104 3.122778
v 0.971375 3.244430 3.469578
v 1.026775 3.020248 3.815557
vt 0.716539 0.255816
vt 0.716539 0.026955
vt 0.796987 0.018758
vt 0.876115 0.327238
vt 0.970479 0.331417
vt 0.970479 0.502869
vt 0.714456 0.253215
vt 0.794903 0.265185
vt 0.794903 0.016427
vt 0.971334 0.514275
vt 0.973275 0.335032
vt 0.878870 0.338320
vt 0.802083 0.015658
vt 0.802083 0.264565
vt 0.948337 0.264565
vt 0.816551 0.857000
vt 0.820618 0.858998
vt 0.820618 0.755651
vt 0.100675 0.439747
vt 0.228944 0.445452
vt 0.228944 0.372560
vt 0.229550 0.447631
vt 0.351784 0.462560
vt 0.351784 0.369096
vt 0.423694 0.369471
vt 0.423694 0.473199
vt 0.487587 0.475319
vt 0.550237 0.357019
vt 0.550237 0.472138
vt 0.623702 0.485964
vt 0.630272 0.486362
vt 0.631822 0.343189
vt 0.752233 0.339271
vt 0.750463 0.502719
vt 0.878188 0.334765
vt 0.049243 0.123349
vt 0.049243 0.152538
vt 0.158595 0.162165
vt 0.163677 0.113983
vt 0.163677 0.162415
vt 0.267883 0.172456
vt 0.329189 0.180022
vt 0.383659 0.186050
vt 0.383659 0.090123
vt 0.437069 0.085226
vt 0.437069 0.190016
vt 0.499701 0.201095
vt 0.504513 0.073750
vt 0.504513 0.205429
vt 0.607124 0.218318
vt 0.714456 0.024354
vt 0.092854 0.443321
vt 0.093737 0.376308
vt 0.221988 0.378495
vt 0.230731 0.452046
vt 0.230731 0.379153
vt 0.352964 0.374217
vt 0.424874 0.478842
vt 0.424874 0.375114
vt 0.488768 0.376698
vt 0.551417 0.478500
vt 0.551417 0.363382
vt 0.624883 0.350074
vt 0.629855 0.348861
vt 0.750216 0.335384
vt 0.750216 0.498841
vt 0.876115 0.506491
vt 0.049578 0.155559
vt 0.049578 0.126369
vt 0.158930 0.116957
vt 0.162967 0.162716
vt 0.162967 0.114284
vt 0.267174 0.104589
vt 0.328479 0.181388
vt 0.328479 0.097421
vt 0.382950 0.091521
vt 0.436360 0.086985
vt 0.498991 0.072146
vt 0.498991 0.203824
vt 0.499358 0.073790
vt 0.601969 0.041724
vt 0.601969 0.219058
vt 0.709301 0.025640
vt 0.436360 0.191776
vt 0.487587 0.370642
vt 0.267174 0.173467
vt 0.352964 0.467681
vt 0.267883 0.103577
vt 0.307803 0.720106
vt 0.324960 0.702631
vt 0.365083 0.742024
vt 0.807348 0.842530
vt 0.800021 0.843005
vt 0.800021 0.754128
vt 0.820961 0.888036
vt 0.816863 0.889970
vt 0.816863 0.807147
vt 0.805874 0.665848
vt 0.807190 0.594106
vt 0.811396 0.595791
vt 0.739050 0.723673
vt 0.732044 0.723597
vt 0.732044 0.771218
vt 0.815612 0.841729
vt 0.815612 0.753653
vt 0.808287 0.754153
vt 0.201745 0.938742
vt 0.151072 0.986688
vt 0.120039 0.961524
vt 0.750914 0.827306
vt 0.750914 0.754767
vt 0.668438 0.768731
vt 0.805948 0.816556
vt 0.785192 0.822678
vt 0.785192 0.839642
vt 0.738675 0.805214
vt 0.738675 0.855638
vt 0.761327 0.835779
vt 0.761327 0.785356
vt 0.847917 0.761610
vt 0.847917 0.820462
vt 0.298377 0.703658
vt 0.308343 0.693508
vt 0.260436 0.685204
vt 0.264160 0.779918
vt 0.297001 0.806548
vt 0.248517 0.871951
vt 0.154501 0.900433
vt 0.795128 0.833300
vt 0.799082 0.831087
vt 0.791903 0.811576
vt 0.799082 0.753653
vt 0.791895 0.755157
vt 0.790994 0.659401
vt 0.786209 0.762449
vt 0.793551 0.762489
vt 0.790994 0.862649
vt 0.786617 0.830449
vt 0.782673 0.832680
vt 0.774798 0.811902
vt 0.779139 0.810603
vt 0.779437 0.755191
vt 0.797593 0.723597
vt 0.804935 0.723630
vt 0.800178 0.826404
vt 0.804935 0.926147
vt 0.797593 0.926115
vt 0.797436 0.815682
vt 0.797436 0.811151
vt 0.768839 0.811151
vt 0.821557 0.856842
vt 0.821557 0.753653
vt 0.825622 0.755654
vt 0.158445 0.570470
vt 0.108220 0.511087
vt 0.126108 0.495096
vt 0.844080 0.821970
vt 0.844080 0.788274
vt 0.751360 0.790815
vt 0.738675 0.804275
vt 0.819146 0.788715
vt 0.819146 0.752776
vt 0.833677 0.842622
vt 0.833677 0.806684
vt 0.747082 0.791124
vt 0.747082 0.858183
vt 0.347926 0.759500
vt 0.291343 0.798507
vt 0.269840 0.777395
vt 0.254528 0.679365
vt 0.196409 0.633926
vt 0.238330 0.596452
vt 0.179510 0.551639
vt 0.806887 0.895712
vt 0.806887 0.805214
vt 0.810887 0.807343
vt 0.780307 0.725709
vt 0.776298 0.822021
vt 0.772289 0.819910
vt 0.774680 0.918335
vt 0.770671 0.916223
vt 0.765720 0.815045
vt 0.769732 0.817152
vt 0.769732 0.725704
vt 0.791897 0.725730
vt 0.787899 0.723597
vt 0.783901 0.818940
vt 0.787899 0.821072
vt 0.781246 0.916260
vt 0.818023 0.815682
vt 0.798375 0.815682
vt 0.798375 0.811151
vt 0.816970 0.666942
vt 0.821151 0.668688
vt 0.823985 0.595852
vt 0.466496 0.872077
vt 0.478436 0.857154
vt 0.517711 0.897556
vt 0.802304 0.784271
vt 0.734016 0.785838
vt 0.737431 0.805380
vt 0.813674 0.800537
vt 0.749392 0.804056
vt 0.751879 0.826224
vt 0.685250 0.800537
vt 0.685250 0.829744
vt 0.804611 0.806946
vt 0.399989 0.780431
vt 0.388455 0.795156
vt 0.441923 0.817467
vt 0.424765 0.834942
vt 0.816390 0.877985
vt 0.820572 0.879732
vt 0.824504 0.811620
vt 0.820323 0.809873
vt 0.824504 0.742280
vt 0.820323 0.740533
vt 0.809325 0.874527
vt 0.811245 0.808898
vt 0.815452 0.810583
vt 0.811245 0.737032
vt 0.815452 0.738717
vt 0.810080 0.667533
vt 0.734016 0.815682
vt 0.734016 0.811151
vt 0.767900 0.811151
vt 0.815924 0.888036
vt 0.815924 0.805214
vt 0.811826 0.807147
vt 0.450070 0.583644
vt 0.498074 0.542439
vt 0.517711 0.563064
vt 0.960504 0.752993
vt 0.912075 0.751818
vt 0.919325 0.826575
vt 0.969817 0.547294
vt 0.902762 0.546557
vt 0.912636 0.611330
vt 0.959943 0.613073
vt 0.902762 0.681935
vt 0.969817 0.682672
vt 0.369138 0.668587
vt 0.396735 0.697118
vt 0.403593 0.620761
vt 0.443716 0.660155
vt 0.478674 0.612484
vt 0.808621 0.891275
vt 0.804846 0.819287
vt 0.799896 0.821878
vt 0.803289 0.741300
vt 0.799275 0.743401
vt 0.808621 0.659401
vt 0.804607 0.661503
vt 0.818906 0.891275
vt 0.814892 0.893377
vt 0.810431 0.822357
vt 0.815381 0.819765
vt 0.809560 0.743401
vt 0.813574 0.741300
vt 0.814892 0.661503
vt 0.796987 0.267517
vt 0.877014 0.509761
vt 0.948337 0.015658
vt 0.816551 0.753653
vt 0.100675 0.372728
vt 0.229550 0.374739
vt 0.623702 0.342783
vt 0.876247 0.514008
vt 0.158595 0.113733
vt 0.329189 0.096055
vt 0.499701 0.069416
vt 0.607124 0.040984
vt 0.221028 0.451380
vt 0.488768 0.481375
vt 0.624883 0.493255
vt 0.629855 0.492042
vt 0.158930 0.165389
vt 0.382950 0.187449
vt 0.499358 0.205469
vt 0.709301 0.254501
vt 0.807348 0.753653
vt 0.820961 0.805214
vt 0.739050 0.771294
vt 0.808287 0.842229
vt 0.668438 0.816381
vt 0.805948 0.845763
vt 0.290057 0.655034
vt 0.210187 0.840870
vt 0.787556 0.812855
vt 0.798336 0.659442
vt 0.798336 0.862689
vt 0.786617 0.753653
vt 0.792836 0.826372
vt 0.768839 0.815682
vt 0.825622 0.858844
vt 0.751361 0.819429
vt 0.738675 0.737216
vt 0.276995 0.659281
vt 0.810887 0.897841
vt 0.776298 0.723597
vt 0.765720 0.723597
vt 0.785244 0.918392
vt 0.818023 0.811151
vt 0.819803 0.594106
vt 0.508275 0.911254
vt 0.813674 0.829744
vt 0.813531 0.876212
vt 0.767900 0.815682
vt 0.811826 0.889970
vt 0.953254 0.828092
vt 0.804607 0.893377
vt 0.818906 0.659401
vn 0.997100 -0.058400 -0.049700
vn 0.047900 0.059800 0.997100
vn -0.998600 -0.024600 0.047400
vn -0.043900 0.149700 -0.987800
vn -0.018200 -0.999500 -0.026300
vn -0.999700 0.017700 0.019600
vn -0.045000 0.100200 -0.994000
vn -0.044800 0.108700 -0.993100
vn -0.044600 0.120300 -0.991700
vn -0.043100 0.182200 -0.982300
vn -0.044200 0.135900 -0.989700
vn -0.039900 0.293700 -0.955100
vn -0.998900 0.024500 -0.040700
vn -0.997800 0.065900 -0.004800
vn -0.998300 0.035600 0.046800
vn -0.969400 0.244200 0.023900
vn -0.989200 0.136800 0.053000
vn -0.995100 0.085400 0.050300
vn 0.047700 0.049500 0.997600
vn 0.047900 0.058000 0.997200
vn 0.043200 -0.176100 0.983400
vn 0.049200 0.179400 0.982500
vn 0.049600 0.234400 0.970900
vn 0.048500 0.103400 0.993500
vn 0.998500 0.034300 0.042200
vn 0.993900 0.110100 0.009200
vn 0.999800 0.012900 -0.015700
vn 0.983900 0.173000 -0.043800
vn 0.998400 0.029700 -0.047900
vn 0.998100 0.039000 -0.047600
vn 0.997800 -0.063900 -0.018900
vn 0.047700 0.045200 0.997800
vn -0.980800 0.188400 0.050700
vn -0.045100 0.094100 -0.994500
vn 0.990700 0.135900 -0.005700
vn 0.048100 0.079100 0.995700
vn -0.999900 0.013000 0.009600
vn -0.044400 0.129600 -0.990600
vn 0.018200 0.999500 0.024600
vn -0.103800 -0.069300 0.992200
vn 0.998000 -0.019600 0.060600
vn 0.069800 -0.025800 0.997200
vn -0.958400 -0.283000 0.037400
vn -0.163900 -0.009500 -0.986400
vn -0.344500 0.937900 0.039900
vn 0.344500 -0.937900 -0.039900
vn 0.137200 -0.990000 -0.031600
vn 0.581000 -0.812500 -0.047700
vn 0.320700 -0.946400 -0.039000
vn 0.230500 -0.972400 -0.035500
vn -0.135200 0.990300 0.031500
vn -0.540800 0.839900 0.046600
vn -0.320700 0.946400 0.039000
vn -0.230500 0.972400 0.035500
vn -0.272900 -0.126200 -0.953700
vn 0.224300 0.103800 -0.969000
vn -0.007300 0.037000 -0.999300
vn 0.019000 0.044700 -0.998800
vn -0.225700 -0.019900 0.974000
vn 0.347000 0.039500 0.937000
vn 0.085600 -0.013800 0.996200
vn 0.111800 -0.006000 0.993700
vn -0.046500 0.025400 -0.998600
vn 0.997100 -0.016300 -0.074300
vn -0.004200 0.908200 -0.418500
vn 0.004200 -0.908200 0.418500
vn 0.005700 -0.895700 0.444600
vn 0.003600 -0.913000 0.408000
vn 0.004600 -0.904800 0.425900
vn -0.005700 0.895600 -0.444800
vn -0.003600 0.913000 -0.408000
vn -0.004600 0.904800 -0.425900
vn 0.964200 -0.011000 -0.264900
vn 0.991200 -0.021200 0.130400
vn 0.971900 -0.011900 -0.235000
vn -0.869100 -0.479500 0.121100
vn -0.974800 0.012200 0.222800
vn -0.989500 0.021500 -0.142800
vn 0.991900 -0.021100 0.125600
vn -0.023600 0.025000 -0.999400
vn 0.373100 0.926800 0.042400
vn -0.366800 -0.927800 -0.067300
vn -0.361100 -0.931400 -0.045400
vn -0.400900 -0.916100 -0.004600
vn -0.443200 -0.895300 -0.045500
vn 0.360400 0.932800 0.007000
vn 0.388400 0.920300 0.046900
vn 0.455600 0.890200 0.001400
vn 0.010300 0.030300 -0.999500
vn -0.101200 0.026300 -0.994500
vn 0.002500 0.024600 -0.999700
vn 0.103200 -0.026300 0.994300
vn -0.006300 -0.024500 0.999700
vn 0.097100 -0.026300 0.994900
vn 0.080100 -0.026000 0.996400
vn -0.991200 0.014800 0.131800
vn 0.050500 0.893900 0.445300
vn -0.042000 -0.892300 -0.449600
vn -0.036100 -0.895700 -0.443100
vn -0.048100 -0.886000 -0.461200
vn -0.039800 -0.839200 -0.542300
vn 0.045700 0.905000 0.423000
vn 0.037500 0.876600 0.479700
vn 0.046500 0.841700 0.537900
vn -0.982900 0.013300 0.183900
vn -0.994300 0.020600 -0.104700
vn -0.985900 0.013800 0.166800
vn 0.993100 -0.020900 0.115000
vn 0.984700 -0.013600 -0.174000
vn 0.995100 -0.020400 0.096300
vn 0.997100 -0.058000 -0.049500
vn -0.998600 -0.024200 0.047500
vn -0.999900 0.013100 -0.006100
vn -0.998300 0.058000 0.010700
vn -0.999900 0.001800 0.016000
vn -0.977800 0.202500 0.054400
vn -0.989100 0.137800 0.052100
vn -0.995000 0.086200 0.050900
vn 0.999700 0.024700 0.007100
vn 0.994600 0.103100 -0.006600
vn 0.998700 -0.020700 -0.046400
vn 0.991600 0.129100 -0.013000
vn 0.998300 0.030600 -0.048700
vn 0.998100 0.039700 -0.047100
vn 0.998600 -0.024500 -0.046500
vn -0.973900 0.225600 0.023400
vn 0.991500 0.129100 -0.012600
vn -0.999900 0.005700 0.016100
vn 0.125700 -0.991900 -0.020000
vn -0.307200 -0.030700 -0.951100
vn 0.235000 0.083100 -0.968400
vn -0.229500 -0.082000 0.969900
vn 0.335700 0.061800 0.940000
vn 0.005700 -0.895700 0.444700
vn 0.792000 0.444600 -0.418400
vn -0.993400 0.020800 -0.112700
vn 0.991800 -0.021100 0.125700
vn 0.366800 0.927800 0.067300
vn -0.373100 -0.926800 -0.042400
vn -0.363300 -0.930900 -0.038700
vn -0.388400 -0.920300 -0.046900
vn -0.455600 -0.890200 -0.001400
vn 0.348400 0.936300 0.044700
vn 0.400900 0.916100 0.004700
vn 0.443200 0.895300 0.045500
vn 0.008500 0.024400 -0.999700
vn 0.002500 0.024500 -0.999700
vn -0.006200 -0.024500 0.999700
vn 0.097200 -0.026200 0.994900
vn 0.042000 0.892300 0.449600
vn -0.050500 -0.893900 -0.445300
vn -0.046400 -0.899200 -0.435000
vn -0.037100 -0.882400 -0.469100
vn -0.046500 -0.841700 -0.537900
vn 0.035600 0.901700 0.431000
vn 0.048800 0.880400 0.471800
vn 0.039800 0.839200 0.542300
usemtl Material.001
s off
f 9/1/1 20/2/1 3/3/1
f 26/4/2 7/5/2 3/6/2
f 32/7/3 5/8/3 7/9/3
f 32/10/4 9/11/4 1/12/4
f 1/13/5 3/14/5 7/15/5
f 69/16/6 74/17/6 67/18/6
f 2/19/7 14/20/7 27/21/7
f 14/22/8 13/23/8 28/24/8
f 40/25/9 37/26/9 12/27/9
f 36/28/10 33/29/10 11/30/10
f 30/31/11 11/32/11 10/33/11
f 31/34/12 10/33/12 9/35/12
f 8/36/13 6/37/13 27/38/13
f 21/39/14 27/40/14 28/41/14
f 40/42/15 29/43/15 23/44/15
f 35/45/16 36/46/16 30/47/16
f 24/48/17 30/49/17 31/50/17
f 31/50/18 32/7/18 26/51/18
f 4/52/19 8/53/19 21/54/19
f 15/55/20 21/56/20 22/57/20
f 38/58/21 39/59/21 23/60/21
f 34/61/22 35/62/22 24/63/22
f 24/64/23 25/65/23 19/66/23
f 25/65/24 26/4/24 20/67/24
f 2/68/25 4/69/25 15/70/25
f 14/71/26 15/72/26 16/73/26
f 37/74/27 38/75/27 17/76/27
f 34/77/28 18/78/28 11/79/28
f 18/80/29 19/81/29 10/82/29
f 10/82/30 19/81/30 20/83/30
f 17/76/31 34/77/31 33/84/31
f 23/60/32 35/62/32 34/61/32
f 23/44/33 29/43/33 36/46/33
f 29/85/34 12/27/34 33/29/34
f 13/86/35 16/73/35 38/75/35
f 16/87/36 22/57/36 39/59/36
f 22/88/37 28/41/37 40/42/37
f 13/23/38 37/26/38 40/25/38
f 44/89/39 43/90/39 42/91/39
f 49/92/40 56/93/40 47/94/40
f 101/95/41 106/96/41 99/97/41
f 90/98/42 82/99/42 84/100/42
f 45/101/43 47/102/43 48/103/43
f 64/104/44 46/105/44 48/106/44
f 57/107/45 48/108/45 47/109/45
f 64/110/46 49/111/46 45/112/46
f 8/113/47 52/114/47 61/115/47
f 52/114/48 51/116/48 62/117/48
f 62/118/49 51/119/49 50/120/49
f 63/121/50 50/120/50 49/111/50
f 44/89/51 60/122/51 53/123/51
f 53/123/52 60/122/52 59/124/52
f 54/125/53 59/126/53 58/127/53
f 58/127/54 57/107/54 56/128/54
f 44/129/55 6/130/55 61/131/55
f 61/131/56 62/132/56 59/133/56
f 62/134/57 63/135/57 58/136/57
f 58/136/58 63/135/58 64/137/58
f 8/138/59 43/139/59 53/140/59
f 52/141/60 53/140/60 54/142/60
f 51/143/61 54/144/61 55/145/61
f 55/145/62 56/146/62 49/147/62
f 65/148/63 67/149/63 68/150/63
f 80/151/64 66/152/64 68/153/64
f 75/154/65 68/155/65 67/156/65
f 80/157/66 69/158/66 65/159/66
f 6/160/67 71/161/67 78/162/67
f 78/163/68 71/164/68 70/165/68
f 79/166/69 70/165/69 69/158/69
f 41/167/70 77/168/70 72/169/70
f 77/170/71 76/171/71 73/172/71
f 76/171/72 75/154/72 74/173/72
f 2/174/73 78/175/73 77/176/73
f 78/177/74 79/178/74 76/179/74
f 79/178/75 80/180/75 75/181/75
f 6/182/76 44/183/76 72/184/76
f 71/185/77 72/186/77 73/187/77
f 70/188/78 73/187/78 74/189/78
f 82/190/79 81/191/79 83/192/79
f 91/193/80 96/194/80 83/195/80
f 96/196/81 85/197/81 84/198/81
f 91/199/82 81/200/82 82/201/82
f 2/202/83 93/203/83 88/204/83
f 93/203/84 92/205/84 89/206/84
f 92/205/85 91/199/85 90/207/85
f 41/167/86 42/91/86 87/208/86
f 94/209/87 87/208/87 86/210/87
f 95/211/88 86/210/88 85/197/88
f 2/212/89 41/213/89 94/214/89
f 93/215/90 94/214/90 95/216/90
f 92/217/91 95/216/91 96/194/91
f 4/218/92 88/219/92 87/220/92
f 88/219/93 89/221/93 86/222/93
f 89/221/94 90/98/94 85/223/94
f 97/224/95 99/225/95 100/226/95
f 112/227/96 98/228/96 100/229/96
f 107/230/97 100/231/97 99/232/97
f 112/233/98 101/234/98 97/235/98
f 8/236/99 4/237/99 103/238/99
f 110/239/100 103/238/100 102/240/100
f 111/241/101 102/240/101 101/234/101
f 43/90/102 109/242/102 104/243/102
f 109/242/103 108/244/103 105/245/103
f 108/244/104 107/230/104 106/246/104
f 8/247/105 110/248/105 109/249/105
f 110/248/106 111/250/106 108/251/106
f 111/250/107 112/252/107 107/253/107
f 4/254/108 42/255/108 104/256/108
f 103/257/109 104/256/109 105/258/109
f 102/259/110 105/258/110 106/260/110
f 1/261/111 9/1/111 3/3/111
f 20/67/2 26/4/2 3/6/2
f 26/51/112 32/7/112 7/9/112
f 5/262/4 32/10/4 1/12/4
f 5/263/5 1/13/5 7/15/5
f 65/264/6 69/16/6 67/18/6
f 6/265/7 2/19/7 27/21/7
f 27/266/8 14/22/8 28/24/8
f 29/85/9 40/25/9 12/27/9
f 30/267/10 36/28/10 11/30/10
f 31/34/11 30/31/11 10/33/11
f 32/268/12 31/34/12 9/35/12
f 21/269/113 8/36/113 27/38/113
f 22/88/114 21/39/114 28/41/114
f 39/270/115 40/42/115 23/44/115
f 24/271/116 35/45/116 30/47/116
f 25/272/117 24/48/117 31/50/117
f 25/272/118 31/50/118 26/51/118
f 15/273/19 4/52/19 21/54/19
f 16/87/20 15/55/20 22/57/20
f 17/274/21 38/58/21 23/60/21
f 18/275/22 34/61/22 24/63/22
f 18/276/23 24/64/23 19/66/23
f 19/66/24 25/65/24 20/67/24
f 14/277/119 2/68/119 15/70/119
f 13/86/120 14/71/120 16/73/120
f 12/278/121 37/74/121 17/76/121
f 33/84/122 34/77/122 11/79/122
f 11/279/123 18/80/123 10/82/123
f 9/280/124 10/82/124 20/83/124
f 12/278/125 17/76/125 33/84/125
f 17/274/32 23/60/32 34/61/32
f 35/45/126 23/44/126 36/46/126
f 36/28/34 29/85/34 33/29/34
f 37/74/127 13/86/127 38/75/127
f 38/58/36 16/87/36 39/59/36
f 39/270/128 22/88/128 40/42/128
f 28/24/38 13/23/38 40/25/38
f 41/167/39 44/89/39 42/91/39
f 45/281/40 49/92/40 47/94/40
f 97/282/41 101/95/41 99/97/41
f 85/223/42 90/98/42 84/100/42
f 46/283/43 45/101/43 48/103/43
f 57/284/44 64/104/44 48/106/44
f 56/128/45 57/107/45 47/109/45
f 46/285/46 64/110/46 45/112/46
f 6/286/129 8/113/129 61/115/129
f 61/115/48 52/114/48 62/117/48
f 63/121/49 62/118/49 50/120/49
f 64/110/50 63/121/50 49/111/50
f 43/90/51 44/89/51 53/123/51
f 54/287/52 53/123/52 59/124/52
f 55/288/53 54/125/53 58/127/53
f 55/288/54 58/127/54 56/128/54
f 60/289/130 44/129/130 61/131/130
f 60/289/131 61/131/131 59/133/131
f 59/290/57 62/134/57 58/136/57
f 57/291/58 58/136/58 64/137/58
f 52/141/132 8/138/132 53/140/132
f 51/292/133 52/141/133 54/142/133
f 50/293/61 51/143/61 55/145/61
f 50/293/62 55/145/62 49/147/62
f 66/294/63 65/148/63 68/150/63
f 75/295/64 80/151/64 68/153/64
f 74/173/65 75/154/65 67/156/65
f 66/296/66 80/157/66 65/159/66
f 2/297/134 6/160/134 78/162/134
f 79/166/68 78/163/68 70/165/68
f 80/157/69 79/166/69 69/158/69
f 44/89/70 41/167/70 72/169/70
f 72/298/71 77/170/71 73/172/71
f 73/172/72 76/171/72 74/173/72
f 41/299/135 2/174/135 77/176/135
f 77/300/74 78/177/74 76/179/74
f 76/179/75 79/178/75 75/181/75
f 71/301/136 6/182/136 72/184/136
f 70/188/77 71/185/77 73/187/77
f 69/302/78 70/188/78 74/189/78
f 84/303/137 82/190/137 83/192/137
f 81/304/80 91/193/80 83/195/80
f 83/305/138 96/196/138 84/198/138
f 90/207/139 91/199/139 82/201/139
f 4/306/140 2/202/140 88/204/140
f 88/204/141 93/203/141 89/206/141
f 89/206/142 92/205/142 90/207/142
f 94/209/143 41/167/143 87/208/143
f 95/211/144 94/209/144 86/210/144
f 96/196/145 95/211/145 85/197/145
f 93/215/146 2/212/146 94/214/146
f 92/217/90 93/215/90 95/216/90
f 91/193/147 92/217/147 96/194/147
f 42/307/92 4/218/92 87/220/92
f 87/220/148 88/219/148 86/222/148
f 86/222/149 89/221/149 85/223/149
f 98/308/95 97/224/95 100/226/95
f 107/309/96 112/227/96 100/229/96
f 106/246/150 107/230/150 99/232/150
f 98/310/151 112/233/151 97/235/151
f 110/239/152 8/236/152 103/238/152
f 111/241/153 110/239/153 102/240/153
f 112/233/154 111/241/154 101/234/154
f 42/91/155 43/90/155 104/243/155
f 104/243/156 109/242/156 105/245/156
f 105/245/157 108/244/157 106/246/157
f 43/311/105 8/247/105 109/249/105
f 109/249/106 110/248/106 108/251/106
f 108/251/107 111/250/107 107/253/107
f 103/257/108 4/254/108 104/256/108
f 102/259/109 103/257/109 105/258/109
f 101/312/110 102/259/110 106/260/110
