# Blender v2.76 (sub 0) OBJ File: ''
# www.blender.org
mtllib sphere.mtl
o Sphere
v -0.239316 0.970942 0.000000
v -0.935016 -0.354605 0.000000
v -0.822984 -0.568065 0.000000
v -0.663123 -0.748511 0.000000
v -0.464723 -0.885456 0.000000
v -0.211903 0.970942 -0.111216
v -0.411492 0.885456 -0.215968
v -0.587166 0.748511 -0.308169
v -0.728716 0.568065 -0.382460
v -0.827916 0.354605 -0.434524
v -0.879000 0.120537 -0.461335
v -0.879000 -0.120537 -0.461335
v -0.827916 -0.354605 -0.434524
v -0.728716 -0.568065 -0.382460
v -0.587166 -0.748511 -0.308169
v -0.411492 -0.885456 -0.215968
v -0.211903 -0.970942 -0.111216
v -0.135947 0.970942 -0.196953
v -0.263993 0.885456 -0.382460
v -0.376696 0.748511 -0.545740
v -0.467508 0.568065 -0.677303
v -0.531150 0.354605 -0.769504
v -0.563923 0.120537 -0.816984
v -0.563923 -0.120537 -0.816984
v -0.531150 -0.354605 -0.769504
v -0.467508 -0.568065 -0.677303
v -0.376696 -0.748511 -0.545740
v -0.263993 -0.885456 -0.382460
v -0.135947 -0.970942 -0.196953
v -0.028846 0.970942 -0.237571
v -0.056016 0.885456 -0.461335
v -0.079930 0.748511 -0.658288
v -0.099199 0.568065 -0.816984
v -0.112703 0.354605 -0.928199
v -0.119658 0.120537 -0.985471
v -0.119658 -0.120537 -0.985471
v -0.112703 -0.354605 -0.928199
v -0.099199 -0.568065 -0.816984
v -0.079930 -0.748511 -0.658288
v -0.056016 -0.885456 -0.461335
v -0.028846 -0.970942 -0.237571
v 0.084863 0.970942 -0.223764
v 0.164794 0.885456 -0.434524
v 0.235147 0.748511 -0.620031
v 0.291835 0.568065 -0.769504
v 0.331562 0.354605 -0.874256
v 0.352020 0.120537 -0.928199
v 0.352020 -0.120537 -0.928199
v 0.331562 -0.354605 -0.874256
v 0.291835 -0.568065 -0.769504
v 0.235147 -0.748511 -0.620031
v 0.164793 -0.885456 -0.434524
v 0.084863 -0.970942 -0.223764
v 0.179131 0.970942 -0.158696
v 0.347851 0.885456 -0.308169
v 0.496355 0.748511 -0.439732
v 0.616013 0.568065 -0.545740
v 0.699870 0.354605 -0.620031
v 0.743054 0.120537 -0.658288
v 0.743054 -0.120537 -0.658288
v 0.699870 -0.354605 -0.620031
v 0.616013 -0.568065 -0.545740
v 0.496355 -0.748511 -0.439732
v 0.347851 -0.885456 -0.308169
v 0.179131 -0.970942 -0.158696
v 0.232362 0.970942 -0.057272
v 0.451220 0.885456 -0.111216
v 0.643854 0.748511 -0.158696
v 0.799070 0.568065 -0.196953
v 0.907847 0.354605 -0.223764
v 0.963863 0.120537 -0.237571
v 0.963863 -0.120537 -0.237571
v 0.907847 -0.354605 -0.223764
v 0.799070 -0.568065 -0.196953
v 0.643854 -0.748511 -0.158696
v 0.451220 -0.885456 -0.111216
v 0.232362 -0.970942 -0.057272
v 0.232362 0.970942 0.057272
v 0.451220 0.885456 0.111216
v 0.643854 0.748511 0.158696
v 0.799070 0.568065 0.196953
v 0.907847 0.354605 0.223764
v 0.963863 0.120537 0.237571
v 0.963863 -0.120537 0.237571
v 0.907847 -0.354605 0.223764
v 0.799070 -0.568065 0.196953
v 0.643854 -0.748511 0.158696
v 0.451220 -0.885456 0.111216
v 0.232362 -0.970942 0.057272
v 0.179131 0.970942 0.158696
v 0.347851 0.885456 0.308169
v 0.496355 0.748511 0.439732
v 0.616013 0.568065 0.545740
v 0.699870 0.354605 0.620031
v 0.743054 0.120537 0.658288
v 0.743054 -0.120537 0.658288
v 0.699870 -0.354605 0.620031
v 0.616013 -0.568065 0.545740
v 0.496355 -0.748511 0.439732
v 0.347851 -0.885456 0.308169
v 0.179131 -0.970942 0.158696
v 0.000000 -1.000000 0.000000
v 0.084863 0.970942 0.223764
v 0.164794 0.885456 0.434524
v 0.235147 0.748511 0.620031
v 0.291835 0.568065 0.769504
v 0.331562 0.354605 0.874256
v 0.352020 0.120537 0.928199
v 0.352020 -0.120537 0.928199
v 0.331562 -0.354605 0.874256
v 0.291835 -0.568065 0.769504
v 0.235147 -0.748511 0.620031
v 0.164794 -0.885456 0.434524
v 0.084863 -0.970942 0.223764
v -0.028846 0.970942 0.237571
v -0.056016 0.885456 0.461335
v -0.079930 0.748511 0.658288
v -0.099199 0.568065 0.816984
v -0.112703 0.354605 0.928199
v -0.119657 0.120537 0.985471
v -0.119657 -0.120537 0.985471
v -0.112703 -0.354605 0.928199
v -0.099199 -0.568065 0.816984
v -0.079930 -0.748511 0.658288
v -0.056016 -0.885456 0.461335
v -0.028846 -0.970942 0.237571
v 0.000000 1.000000 0.000000
v -0.135947 0.970942 0.196953
v -0.263993 0.885456 0.382460
v -0.376697 0.748511 0.545740
v -0.467508 0.568065 0.677303
v -0.531150 0.354605 0.769504
v -0.563923 0.120537 0.816984
v -0.563923 -0.120537 0.816984
v -0.531150 -0.354605 0.769504
v -0.467508 -0.568065 0.677303
v -0.376696 -0.748511 0.545740
v -0.263993 -0.885456 0.382460
v -0.135947 -0.970942 0.196953
v -0.211903 0.970942 0.111216
v -0.411492 0.885456 0.215968
v -0.587166 0.748511 0.308169
v -0.728716 0.568065 0.382460
v -0.827916 0.354605 0.434524
v -0.879000 0.120537 0.461335
v -0.879000 -0.120537 0.461335
v -0.827916 -0.354605 0.434524
v -0.728716 -0.568065 0.382460
v -0.587166 -0.748511 0.308169
v -0.411492 -0.885456 0.215968
v -0.211903 -0.970942 0.111216
v -0.464723 0.885456 -0.000000
v -0.663123 0.748511 0.000000
v -0.822984 0.568065 0.000000
v -0.935016 0.354605 0.000000
v -0.992709 0.120537 0.000000
v -0.992709 -0.120537 0.000000
v -0.239315 -0.970942 0.000000
vt 0.168439 0.500000
vt 0.206417 0.654084
vt 0.294254 0.607984
vt 0.500000 0.322698
vt 0.717262 0.322698
vt 0.691230 0.215968
vt 0.500000 0.125745
vt 0.500000 0.215968
vt 0.717262 0.677302
vt 0.884752 0.677302
vt 0.908492 0.560268
vt 0.730667 0.560268
vt 0.908492 0.439732
vt 0.730667 0.439732
vt 0.884752 0.322698
vt 0.838651 0.215968
vt 0.394048 0.555608
vt 0.432027 0.598477
vt 0.368004 0.691230
vt 0.135642 0.691230
vt 0.266246 0.838651
vt 0.311652 0.772870
vt 0.691230 0.784032
vt 0.838651 0.784032
vt 0.234425 0.322698
vt 0.218039 0.439732
vt 0.440171 0.439732
vt 0.443648 0.322698
vt 0.450400 0.215968
vt 0.485577 0.618786
vt 0.471992 0.730668
vt 0.266246 0.215968
vt 0.460035 0.125745
vt 0.460035 0.829144
vt 0.266246 0.784032
vt 0.311652 0.874255
vt 0.460035 0.874255
vt 0.234425 0.677302
vt 0.450400 0.784032
vt 0.443648 0.677302
vt 0.440171 0.560268
vt 0.218039 0.560268
vt 0.617573 0.810015
vt 0.582397 0.717262
vt 0.617573 0.874255
vt 0.645917 0.784032
vt 0.665781 0.677302
vt 0.676010 0.560268
vt 0.676010 0.439732
vt 0.665781 0.322698
vt 0.645917 0.215968
vt 0.542431 0.611882
vt 0.617573 0.125745
vt 0.849935 0.677302
vt 0.871527 0.560268
vt 0.871527 0.439732
vt 0.849935 0.322698
vt 0.808007 0.215968
vt 0.589565 0.579348
vt 0.673925 0.654084
vt 0.645917 0.884752
vt 0.808007 0.772870
vt 0.748178 0.719866
vt 0.808006 0.784032
vt 0.810015 0.322698
vt 0.611882 0.322698
vt 0.598477 0.215968
vt 0.616181 0.528636
vt 0.725610 0.555608
vt 0.772870 0.215968
vt 0.579348 0.125745
vt 0.821927 0.579348
vt 0.772870 0.784032
vt 0.719866 0.874255
vt 0.579348 0.874255
vt 0.810015 0.677302
vt 0.598477 0.784032
vt 0.611882 0.677302
vt 0.618786 0.560268
vt 0.829144 0.560268
vt 0.618786 0.439732
vt 0.829144 0.439732
vt 0.821927 0.420652
vt 0.725610 0.444392
vt 0.420652 0.874255
vt 0.401524 0.784032
vt 0.388118 0.677302
vt 0.381215 0.560268
vt 0.381215 0.439732
vt 0.388118 0.322698
vt 0.401523 0.215968
vt 0.616181 0.471364
vt 0.170856 0.560268
vt 0.170856 0.439732
vt 0.189985 0.322698
vt 0.227130 0.215968
vt 0.589565 0.420652
vt 0.673925 0.345916
vt 0.280134 0.125745
vt 0.748178 0.280134
vt 0.280134 0.874255
vt 0.227130 0.784032
vt 0.189985 0.677302
vt 0.542431 0.388118
vt 0.808007 0.227130
vt 0.645917 0.115248
vt 0.617573 0.189985
vt 0.582397 0.282738
vt 0.471992 0.269333
vt 0.485577 0.381214
vt 0.460035 0.170856
vt 0.432027 0.401523
vt 0.368004 0.308770
vt 0.311652 0.125745
vt 0.311652 0.227130
vt 0.394048 0.444392
vt 0.294254 0.392016
vt 0.266246 0.161349
vt 0.135642 0.308770
vt 0.206417 0.345916
vt 0.115248 0.677302
vt 0.161349 0.784032
vt 0.308770 0.784032
vt 0.282738 0.677302
vt 0.269332 0.560268
vt 0.091508 0.560268
vt 0.269332 0.439732
vt 0.115248 0.322698
vt 0.091508 0.439732
vt 0.161349 0.215968
vt 0.282738 0.322698
vt 0.500000 0.784032
vt 0.500000 0.677302
vt 0.500000 0.560268
vt 0.500000 0.439732
vt 0.267638 0.500000
vt 0.345916 0.874255
vt 0.500000 0.874255
vt 0.654084 0.874255
vt 0.500000 0.500000
vt 0.380342 0.500000
vt 0.308770 0.215968
vt 0.654084 0.125745
vt 0.719866 0.125745
vt 0.420652 0.125745
vt 0.345916 0.125745
vn -0.562600 -0.815000 -0.138700
vn -0.865100 -0.454000 -0.213200
vn -0.736100 -0.652100 -0.181400
vn -0.728000 0.232700 -0.644900
vn -0.748500 0.000000 -0.663100
vn -0.728000 -0.232700 -0.644900
vn -0.666900 -0.454000 -0.590800
vn -0.272300 0.931500 -0.241300
vn -0.567500 -0.652100 -0.502700
vn -0.433700 0.815000 -0.384200
vn -0.433700 -0.815000 -0.384200
vn -0.567500 0.652100 -0.502700
vn -0.272300 -0.931500 -0.241300
vn -0.666900 0.454000 -0.590800
vn -0.344900 -0.232700 -0.909300
vn -0.315900 -0.454000 -0.833100
vn -0.129000 0.931500 -0.340200
vn -0.268800 -0.652100 -0.708900
vn -0.205500 0.815000 -0.541800
vn -0.205500 -0.815000 -0.541800
vn -0.268800 0.652100 -0.708900
vn -0.129000 -0.931500 -0.340200
vn -0.315900 0.454000 -0.833100
vn -0.344900 0.232700 -0.909300
vn -0.354600 0.000000 -0.935000
vn 0.069800 -0.815000 -0.575200
vn 0.091400 0.652100 -0.752600
vn 0.043900 -0.931500 -0.361200
vn 0.107400 0.454000 -0.884500
vn 0.117200 0.232700 -0.965400
vn 0.120500 0.000000 -0.992700
vn 0.117200 -0.232700 -0.965400
vn 0.107400 -0.454000 -0.884500
vn 0.043900 0.931500 -0.361200
vn 0.091400 -0.652100 -0.752600
vn 0.069800 0.815000 -0.575200
vn 0.552500 0.232700 -0.800400
vn 0.568100 0.000000 -0.823000
vn 0.552500 -0.232700 -0.800400
vn 0.506100 -0.454000 -0.733300
vn 0.206700 0.931500 -0.299400
vn 0.430700 -0.652100 -0.623900
vn 0.329100 0.815000 -0.476800
vn 0.329100 -0.815000 -0.476800
vn 0.430700 0.652100 -0.623900
vn 0.206700 -0.931500 -0.299400
vn 0.506100 0.454000 -0.733300
vn 0.788900 -0.454000 -0.414100
vn 0.322200 0.931500 -0.169100
vn 0.671300 -0.652100 -0.352300
vn 0.513000 0.815000 -0.269300
vn 0.513000 -0.815000 -0.269300
vn 0.671300 0.652100 -0.352300
vn 0.322200 -0.931500 -0.169100
vn 0.788900 0.454000 -0.414100
vn 0.861100 0.232700 -0.452000
vn 0.885500 0.000000 -0.464700
vn 0.861100 -0.232700 -0.452000
vn 0.579400 -0.815000 0.000000
vn 0.758100 0.652100 0.000000
vn 0.363800 -0.931500 0.000000
vn 0.891000 0.454000 -0.000000
vn 0.972500 0.232700 0.000000
vn 1.000000 0.000000 -0.000000
vn 0.972500 -0.232700 -0.000000
vn 0.891000 -0.454000 0.000000
vn 0.363800 0.931500 0.000000
vn 0.758100 -0.652100 0.000000
vn 0.579400 0.815000 0.000000
vn 0.885500 0.000000 0.464700
vn 0.861100 -0.232700 0.452000
vn 0.788900 -0.454000 0.414100
vn 0.322200 0.931500 0.169100
vn 0.671300 -0.652100 0.352300
vn 0.513000 0.815000 0.269300
vn 0.513000 -0.815000 0.269300
vn 0.671300 0.652100 0.352300
vn 0.322200 -0.931500 0.169100
vn 0.788900 0.454000 0.414100
vn 0.861100 0.232700 0.452000
vn 0.506100 -0.454000 0.733300
vn 0.206700 0.931500 0.299400
vn 0.430700 -0.652100 0.623900
vn 0.329100 0.815000 0.476800
vn 0.329100 -0.815000 0.476800
vn 0.430700 0.652100 0.623900
vn 0.206700 -0.931500 0.299400
vn 0.506100 0.454000 0.733300
vn 0.552500 0.232700 0.800400
vn 0.568100 0.000000 0.823000
vn 0.552500 -0.232700 0.800400
vn 0.091400 0.652100 0.752600
vn 0.043900 -0.931500 0.361200
vn 0.107400 0.454000 0.884500
vn 0.117200 0.232700 0.965400
vn 0.120500 0.000000 0.992700
vn 0.117200 -0.232700 0.965400
vn 0.107400 -0.454000 0.884500
vn 0.043900 0.931500 0.361200
vn 0.091400 -0.652100 0.752600
vn 0.069800 0.815000 0.575200
vn 0.069800 -0.815000 0.575200
vn -0.354600 0.000000 0.935000
vn -0.344900 -0.232700 0.909300
vn -0.315900 -0.454000 0.833100
vn -0.129000 0.931500 0.340200
vn -0.268800 -0.652100 0.708900
vn -0.205500 0.815000 0.541800
vn -0.205500 -0.815000 0.541800
vn -0.268800 0.652100 0.708900
vn -0.129000 -0.931500 0.340200
vn -0.315900 0.454000 0.833100
vn -0.344900 0.232700 0.909300
vn -0.272300 0.931500 0.241300
vn -0.567500 -0.652100 0.502700
vn -0.433700 0.815000 0.384200
vn -0.433700 -0.815000 0.384200
vn -0.567500 0.652100 0.502700
vn -0.272300 -0.931500 0.241300
vn -0.666900 0.454000 0.590800
vn -0.728000 0.232700 0.644900
vn -0.748500 0.000000 0.663100
vn -0.728000 -0.232700 0.644900
vn -0.666900 -0.454000 0.590800
vn -0.865100 0.454000 0.213200
vn -0.944300 0.232700 0.232700
vn -0.970900 0.000000 0.239300
vn -0.562600 0.815000 0.138700
vn -0.736100 0.652100 0.181400
vn -0.736100 0.652100 -0.181400
vn -0.353300 -0.931500 -0.087100
vn -0.865100 0.454000 -0.213200
vn -0.120500 -0.992300 -0.029700
vn -0.944300 0.232700 -0.232700
vn -0.970900 0.000000 -0.239300
vn -0.944300 -0.232700 -0.232700
vn -0.120500 0.992300 -0.029700
vn -0.353300 0.931500 -0.087100
vn -0.562600 0.815000 -0.138700
vn -0.092900 -0.992300 -0.082300
vn -0.092900 0.992300 -0.082300
vn -0.044000 0.992300 -0.116000
vn -0.044000 -0.992300 -0.116000
vn 0.015000 -0.992300 -0.123200
vn 0.015000 0.992300 -0.123200
vn 0.070500 0.992300 -0.102100
vn 0.070500 -0.992300 -0.102100
vn 0.109900 0.992300 -0.057700
vn 0.109900 -0.992300 -0.057700
vn 0.124100 -0.992300 -0.000000
vn 0.124100 0.992300 0.000000
vn 0.109900 0.992300 0.057700
vn 0.109900 -0.992300 0.057700
vn 0.070500 -0.992300 0.102100
vn 0.070500 0.992300 0.102100
vn 0.015000 -0.992300 0.123200
vn 0.015000 0.992300 0.123200
vn -0.044000 0.992300 0.116000
vn -0.044000 -0.992300 0.116000
vn -0.092900 -0.992300 0.082300
vn -0.092900 0.992300 0.082300
vn -0.353300 -0.931500 0.087100
vn -0.120500 -0.992300 0.029700
vn -0.944300 -0.232700 0.232700
vn -0.120500 0.992300 0.029700
vn -0.865100 -0.454000 0.213200
vn -0.353300 0.931500 0.087100
vn -0.736100 -0.652100 0.181400
vn -0.562600 -0.815000 0.138700
usemtl None
s off
f 4/1/1 15/2/1 16/3/1
f 2/4/2 13/5/2 14/6/2
f 4/7/3 3/8/3 14/6/3
f 10/9/4 22/10/4 23/11/4
f 11/12/5 23/11/5 24/13/5
f 13/5/6 12/14/6 24/13/6
f 13/5/7 25/15/7 26/16/7
f 6/17/8 18/18/8 19/19/8
f 14/20/9 26/21/9 27/22/9
f 7/3/10 19/19/10 20/22/10
f 15/2/11 27/22/11 28/19/11
f 8/2/12 20/22/12 21/21/12
f 16/3/13 28/19/13 29/18/13
f 10/9/14 9/23/14 21/24/14
f 25/25/15 24/26/15 36/27/15
f 25/25/16 37/28/16 38/29/16
f 18/18/17 30/30/17 31/31/17
f 26/32/18 38/29/18 39/33/18
f 19/19/19 31/31/19 32/34/19
f 27/22/20 39/34/20 40/31/20
f 21/35/21 20/36/21 32/37/21
f 28/19/22 40/31/22 41/30/22
f 22/38/23 21/35/23 33/39/23
f 22/38/24 34/40/24 35/41/24
f 23/42/25 35/41/25 36/27/25
f 39/34/26 51/43/26 52/44/26
f 33/39/27 32/37/27 44/45/27
f 41/30/28 40/31/28 52/44/28
f 33/39/29 45/46/29 46/47/29
f 34/40/30 46/47/30 47/48/30
f 35/41/31 47/48/31 48/49/31
f 36/27/32 48/49/32 49/50/32
f 37/28/33 49/50/33 50/51/33
f 30/30/34 42/52/34 43/44/34
f 38/29/35 50/51/35 51/53/35
f 31/31/36 43/44/36 44/43/36
f 46/47/37 58/54/37 59/55/37
f 47/48/38 59/55/38 60/56/38
f 49/50/39 48/49/39 60/56/39
f 49/50/40 61/57/40 62/58/40
f 42/52/41 54/59/41 55/60/41
f 50/61/42 62/62/42 63/63/42
f 43/44/43 55/60/43 56/63/43
f 51/43/44 63/63/44 64/60/44
f 44/43/45 56/63/45 57/62/45
f 52/44/46 64/60/46 65/59/46
f 46/47/47 45/46/47 57/64/47
f 61/65/48 73/66/48 74/67/48
f 54/59/49 66/68/49 67/69/49
f 62/70/50 74/67/50 75/71/50
f 55/60/51 67/69/51 68/72/51
f 63/63/52 75/72/52 76/69/52
f 57/73/53 56/74/53 68/75/53
f 64/60/54 76/69/54 77/68/54
f 58/76/55 57/73/55 69/77/55
f 58/76/56 70/78/56 71/79/56
f 59/80/57 71/79/57 72/81/57
f 61/65/58 60/82/58 72/81/58
f 75/72/59 87/83/59 88/84/59
f 68/75/60 80/85/60 81/86/60
f 77/68/61 76/69/61 88/84/61
f 70/78/62 69/77/62 81/86/62
f 70/78/63 82/87/63 83/88/63
f 71/79/64 83/88/64 84/89/64
f 73/66/65 72/81/65 84/89/65
f 73/66/66 85/90/66 86/91/66
f 66/68/67 78/92/67 79/84/67
f 75/71/68 74/67/68 86/91/68
f 67/69/69 79/84/69 80/83/69
f 83/88/70 95/93/70 96/94/70
f 85/90/71 84/89/71 96/94/71
f 85/90/72 97/95/72 98/96/72
f 78/92/73 90/97/73 91/98/73
f 86/91/74 98/96/74 99/99/74
f 79/84/75 91/98/75 92/100/75
f 87/83/76 99/100/76 100/98/76
f 80/85/77 92/101/77 93/102/77
f 89/92/78 88/84/78 100/98/78
f 82/87/79 81/86/79 93/102/79
f 82/87/80 94/103/80 95/93/80
f 97/57/81 110/50/81 111/51/81
f 91/98/82 90/97/82 103/104/82
f 98/105/83 111/106/83 112/107/83
f 91/98/84 104/108/84 105/107/84
f 99/100/85 112/107/85 113/108/85
f 92/100/86 105/107/86 106/106/86
f 101/97/87 100/98/87 113/108/87
f 94/54/88 93/64/88 106/46/88
f 94/54/89 107/47/89 108/48/89
f 95/55/90 108/48/90 109/49/90
f 97/57/91 96/56/91 109/49/91
f 105/45/92 117/37/92 118/39/92
f 114/104/93 113/108/93 125/109/93
f 107/47/94 106/46/94 118/39/94
f 107/47/95 119/40/95 120/41/95
f 108/48/96 120/41/96 121/27/96
f 110/50/97 109/49/97 121/27/97
f 110/50/98 122/28/98 123/29/98
f 103/104/99 115/110/99 116/109/99
f 111/51/100 123/29/100 124/33/100
f 104/108/101 116/109/101 117/111/101
f 112/107/102 124/111/102 125/109/102
f 120/41/103 133/42/103 134/26/103
f 122/28/104 121/27/104 134/26/104
f 122/28/105 135/25/105 136/32/105
f 115/110/106 128/112/106 129/113/106
f 123/29/107 136/32/107 137/114/107
f 116/109/108 129/113/108 130/115/108
f 124/111/109 137/115/109 138/113/109
f 117/37/110 130/36/110 131/35/110
f 126/110/111 125/109/111 138/113/111
f 119/40/112 118/39/112 131/35/112
f 119/40/113 132/38/113 133/42/113
f 128/112/114 140/116/114 141/117/114
f 136/118/115 148/119/115 149/120/115
f 129/113/116 141/117/116 142/120/116
f 137/115/117 149/120/117 150/117/117
f 130/115/118 142/120/118 143/119/118
f 139/112/119 138/113/119 150/117/119
f 132/121/120 131/122/120 143/123/120
f 132/121/121 144/124/121 145/125/121
f 133/126/122 145/125/122 146/127/122
f 135/128/123 134/129/123 146/127/123
f 136/130/124 135/128/124 147/131/124
f 144/124/125 143/123/125 154/132/125
f 144/124/126 155/133/126 156/134/126
f 145/125/127 156/134/127 157/135/127
f 141/117/128 152/136/128 153/1/128
f 142/137/129 153/138/129 154/132/129
f 153/138/130 8/139/130 9/23/130
f 5/136/131 16/3/131 17/17/131
f 155/133/132 154/132/132 9/23/132
f 102/140/133 158/141/133 17/17/133
f 155/133/134 10/9/134 11/12/134
f 156/134/135 11/12/135 12/14/135
f 157/135/136 12/14/136 13/5/136
f 1/141/137 127/140/137 6/17/137
f 1/141/138 6/17/138 7/3/138
f 152/136/139 7/3/139 8/2/139
f 102/140/140 17/17/140 29/18/140
f 6/17/141 127/140/141 18/18/141
f 18/18/142 127/140/142 30/30/142
f 102/140/143 29/18/143 41/30/143
f 102/140/144 41/30/144 53/52/144
f 30/30/145 127/140/145 42/52/145
f 42/52/146 127/140/146 54/59/146
f 102/140/147 53/52/147 65/59/147
f 54/59/148 127/140/148 66/68/148
f 102/140/149 65/59/149 77/68/149
f 102/140/150 77/68/150 89/92/150
f 66/68/151 127/140/151 78/92/151
f 78/92/152 127/140/152 90/97/152
f 102/140/153 89/92/153 101/97/153
f 102/140/154 101/97/154 114/104/154
f 90/97/155 127/140/155 103/104/155
f 102/140/156 114/104/156 126/110/156
f 103/104/157 127/140/157 115/110/157
f 115/110/158 127/140/158 128/112/158
f 102/140/159 126/110/159 139/112/159
f 102/140/160 139/112/160 151/116/160
f 128/112/161 127/140/161 140/116/161
f 150/117/162 5/136/162 158/141/162
f 102/140/163 151/116/163 158/141/163
f 147/131/164 146/127/164 157/135/164
f 140/116/165 127/140/165 1/141/165
f 147/131/166 2/4/166 3/8/166
f 140/116/167 1/141/167 152/136/167
f 148/142/168 3/8/168 4/7/168
f 149/120/169 4/1/169 5/136/169
f 5/136/1 4/1/1 16/3/1
f 3/8/2 2/4/2 14/6/2
f 15/143/3 4/7/3 14/6/3
f 11/12/4 10/9/4 23/11/4
f 12/14/5 11/12/5 24/13/5
f 25/15/6 13/5/6 24/13/6
f 14/6/7 13/5/7 26/16/7
f 7/3/8 6/17/8 19/19/8
f 15/2/9 14/20/9 27/22/9
f 8/2/10 7/3/10 20/22/10
f 16/3/11 15/2/11 28/19/11
f 9/20/12 8/2/12 21/21/12
f 17/17/13 16/3/13 29/18/13
f 22/10/14 10/9/14 21/24/14
f 37/28/15 25/25/15 36/27/15
f 26/32/16 25/25/16 38/29/16
f 19/19/17 18/18/17 31/31/17
f 27/114/18 26/32/18 39/33/18
f 20/22/19 19/19/19 32/34/19
f 28/19/20 27/22/20 40/31/20
f 33/39/21 21/35/21 32/37/21
f 29/18/22 28/19/22 41/30/22
f 34/40/23 22/38/23 33/39/23
f 23/42/24 22/38/24 35/41/24
f 24/26/25 23/42/25 36/27/25
f 40/31/26 39/34/26 52/44/26
f 45/46/27 33/39/27 44/45/27
f 53/52/28 41/30/28 52/44/28
f 34/40/29 33/39/29 46/47/29
f 35/41/30 34/40/30 47/48/30
f 36/27/31 35/41/31 48/49/31
f 37/28/32 36/27/32 49/50/32
f 38/29/33 37/28/33 50/51/33
f 31/31/34 30/30/34 43/44/34
f 39/33/35 38/29/35 51/53/35
f 32/34/36 31/31/36 44/43/36
f 47/48/37 46/47/37 59/55/37
f 48/49/38 47/48/38 60/56/38
f 61/57/39 49/50/39 60/56/39
f 50/51/40 49/50/40 62/58/40
f 43/44/41 42/52/41 55/60/41
f 51/43/42 50/61/42 63/63/42
f 44/43/43 43/44/43 56/63/43
f 52/44/44 51/43/44 64/60/44
f 45/61/45 44/43/45 57/62/45
f 53/52/46 52/44/46 65/59/46
f 58/54/47 46/47/47 57/64/47
f 62/70/48 61/65/48 74/67/48
f 55/60/49 54/59/49 67/69/49
f 63/144/50 62/70/50 75/71/50
f 56/63/51 55/60/51 68/72/51
f 64/60/52 63/63/52 76/69/52
f 69/77/53 57/73/53 68/75/53
f 65/59/54 64/60/54 77/68/54
f 70/78/55 58/76/55 69/77/55
f 59/80/56 58/76/56 71/79/56
f 60/82/57 59/80/57 72/81/57
f 73/66/58 61/65/58 72/81/58
f 76/69/59 75/72/59 88/84/59
f 69/77/60 68/75/60 81/86/60
f 89/92/61 77/68/61 88/84/61
f 82/87/62 70/78/62 81/86/62
f 71/79/63 70/78/63 83/88/63
f 72/81/64 71/79/64 84/89/64
f 85/90/65 73/66/65 84/89/65
f 74/67/66 73/66/66 86/91/66
f 67/69/67 66/68/67 79/84/67
f 87/145/68 75/71/68 86/91/68
f 68/72/69 67/69/69 80/83/69
f 84/89/70 83/88/70 96/94/70
f 97/95/71 85/90/71 96/94/71
f 86/91/72 85/90/72 98/96/72
f 79/84/73 78/92/73 91/98/73
f 87/145/74 86/91/74 99/99/74
f 80/83/75 79/84/75 92/100/75
f 88/84/76 87/83/76 100/98/76
f 81/86/77 80/85/77 93/102/77
f 101/97/78 89/92/78 100/98/78
f 94/103/79 82/87/79 93/102/79
f 83/88/80 82/87/80 95/93/80
f 98/58/81 97/57/81 111/51/81
f 104/108/82 91/98/82 103/104/82
f 99/100/83 98/105/83 112/107/83
f 92/100/84 91/98/84 105/107/84
f 100/98/85 99/100/85 113/108/85
f 93/105/86 92/100/86 106/106/86
f 114/104/87 101/97/87 113/108/87
f 107/47/88 94/54/88 106/46/88
f 95/55/89 94/54/89 108/48/89
f 96/56/90 95/55/90 109/49/90
f 110/50/91 97/57/91 109/49/91
f 106/46/92 105/45/92 118/39/92
f 126/110/93 114/104/93 125/109/93
f 119/40/94 107/47/94 118/39/94
f 108/48/95 107/47/95 120/41/95
f 109/49/96 108/48/96 121/27/96
f 122/28/97 110/50/97 121/27/97
f 111/51/98 110/50/98 123/29/98
f 104/108/99 103/104/99 116/109/99
f 112/53/100 111/51/100 124/33/100
f 105/107/101 104/108/101 117/111/101
f 113/108/102 112/107/102 125/109/102
f 121/27/103 120/41/103 134/26/103
f 135/25/104 122/28/104 134/26/104
f 123/29/105 122/28/105 136/32/105
f 116/109/106 115/110/106 129/113/106
f 124/33/107 123/29/107 137/114/107
f 117/111/108 116/109/108 130/115/108
f 125/109/109 124/111/109 138/113/109
f 118/39/110 117/37/110 131/35/110
f 139/112/111 126/110/111 138/113/111
f 132/38/112 119/40/112 131/35/112
f 120/41/113 119/40/113 133/42/113
f 129/113/114 128/112/114 141/117/114
f 137/115/115 136/118/115 149/120/115
f 130/115/116 129/113/116 142/120/116
f 138/113/117 137/115/117 150/117/117
f 131/118/118 130/115/118 143/119/118
f 151/116/119 139/112/119 150/117/119
f 144/124/120 132/121/120 143/123/120
f 133/126/121 132/121/121 145/125/121
f 134/129/122 133/126/122 146/127/122
f 147/131/123 135/128/123 146/127/123
f 148/142/124 136/130/124 147/131/124
f 155/133/125 144/124/125 154/132/125
f 145/125/126 144/124/126 156/134/126
f 146/127/127 145/125/127 157/135/127
f 142/120/128 141/117/128 153/1/128
f 143/123/129 142/137/129 154/132/129
f 154/132/130 153/138/130 9/23/130
f 158/141/131 5/136/131 17/17/131
f 10/9/132 155/133/132 9/23/132
f 156/134/134 155/133/134 11/12/134
f 157/135/135 156/134/135 12/14/135
f 2/4/136 157/135/136 13/5/136
f 152/136/138 1/141/138 7/3/138
f 153/1/139 152/136/139 8/2/139
f 151/116/162 150/117/162 158/141/162
f 2/4/164 147/131/164 157/135/164
f 148/142/166 147/131/166 3/8/166
f 141/117/167 140/116/167 152/136/167
f 149/146/168 148/142/168 4/7/168
f 150/117/169 149/120/169 5/136/169
